<?xml version="1.0" standalone="no"?>
<!DOCTYPE svg PUBLIC "-//W3C//DTD SVG 20010904//EN"
 "http://www.w3.org/TR/2001/REC-SVG-20010904/DTD/svg10.dtd">
<svg version="1.0" xmlns="http://www.w3.org/2000/svg"
 width="500.000000pt" height="500.000000pt" viewBox="0 0 500.000000 500.000000"
 preserveAspectRatio="xMidYMid meet">

<g transform="translate(0.000000,500.000000) scale(0.100000,-0.100000)"
fill="#000000" stroke="none">
<path d="M1945 3391 c-5 -9 68 -187 83 -203 4 -4 12 -4 18 0 7 5 -5 41 -35
110 -45 99 -54 112 -66 93z"/>
<path d="M3053 3289 c-63 -103 -70 -119 -51 -119 7 0 29 26 48 58 l35 57 6
-63 c3 -34 8 -65 11 -68 3 -2 32 7 63 21 32 14 59 24 61 23 1 -2 -13 -29 -33
-61 -25 -41 -32 -62 -25 -69 11 -11 38 27 106 145 l28 47 -23 -9 c-13 -5 -52
-20 -86 -35 -34 -14 -65 -26 -68 -26 -3 0 -6 28 -6 63 -1 34 -4 76 -8 92 -6
29 -8 28 -58 -56z"/>
<path d="M1817 3334 c-3 -4 7 -25 22 -48 l29 -41 -49 -33 c-27 -17 -50 -32
-53 -32 -2 0 -16 19 -31 41 -19 29 -30 38 -37 31 -8 -8 7 -39 52 -106 34 -53
66 -93 71 -90 14 8 10 27 -11 54 -28 36 -25 44 27 78 l48 31 25 -39 c23 -37
50 -53 50 -30 0 15 -119 190 -129 190 -4 0 -10 -3 -14 -6z"/>
<path d="M1560 3131 c-53 -53 -52 -111 5 -168 45 -45 99 -46 148 -3 34 30 54
70 35 70 -5 0 -24 -16 -42 -35 -19 -19 -43 -35 -55 -35 -36 0 -77 27 -91 60
-11 27 -11 37 3 65 9 18 25 36 36 40 25 7 28 35 5 35 -8 0 -28 -13 -44 -29z"/>
<path d="M3340 3085 c-58 -24 -109 -46 -115 -48 -6 -3 -6 -9 1 -17 9 -9 18 -8
41 4 29 15 31 14 62 -18 29 -30 31 -36 20 -59 -11 -25 -5 -67 8 -53 11 10 101
236 94 235 -3 0 -53 -20 -111 -44z m49 -43 c-13 -37 -19 -39 -44 -12 -17 19
-17 20 16 34 19 8 35 13 37 12 1 -2 -3 -17 -9 -34z"/>
<path d="M3484 2931 c-42 -26 -64 -59 -64 -96 0 -35 30 -89 59 -104 31 -17 31
8 -1 40 -48 47 -29 117 37 139 44 14 89 -7 103 -50 6 -16 18 -30 26 -30 19 0
20 2 2 43 -29 69 -103 96 -162 58z"/>
<path d="M1404 2920 c-71 -29 -86 -138 -25 -192 25 -22 41 -28 77 -28 39 0 51
5 80 34 29 29 34 41 34 81 0 40 -5 52 -34 81 -27 27 -42 34 -72 33 -22 0 -49
-4 -60 -9z m110 -45 c55 -51 19 -145 -57 -145 -47 0 -87 40 -87 87 0 74 88
110 144 58z"/>
<path d="M2308 2923 c7 -3 16 -2 19 1 4 3 -2 6 -13 5 -11 0 -14 -3 -6 -6z"/>
<path d="M2470 2855 c13 -14 26 -25 28 -25 3 0 -5 11 -18 25 -13 14 -26 25
-28 25 -3 0 5 -11 18 -25z"/>
<path d="M2145 2826 c-44 -26 -71 -72 -81 -135 -5 -34 -3 -41 17 -54 37 -24
160 -48 225 -45 l59 3 3 39 c8 90 -80 216 -151 216 -17 0 -50 -11 -72 -24z"/>
<path d="M1960 2739 c-250 -76 -383 -175 -379 -285 1 -21 3 -23 6 -9 3 11 10
23 17 27 8 6 8 8 -1 8 -18 0 -3 37 31 74 51 54 117 97 140 90 14 -3 17 -2 8 4
-9 6 8 16 55 34 101 38 174 59 184 52 5 -3 9 2 9 10 0 9 -1 16 -2 15 -2 0 -32
-10 -68 -20z"/>
<path d="M2946 2743 c9 -23 34 -43 53 -42 9 0 4 5 -11 11 -28 10 -38 28 -17
28 6 0 45 -10 86 -22 56 -16 71 -24 57 -29 -13 -5 -9 -7 16 -7 72 2 220 -92
257 -162 13 -24 23 -38 23 -31 0 48 -85 131 -182 178 -61 30 -188 73 -255 88
-29 6 -32 4 -27 -12z"/>
<path d="M2472 2720 c0 -14 2 -19 5 -12 2 6 2 18 0 25 -3 6 -5 1 -5 -13z"/>
<path d="M3603 2701 c-51 -20 -93 -42 -93 -48 0 -17 20 -16 64 2 l36 15 15
-37 c31 -74 30 -78 -15 -93 -45 -15 -52 -21 -42 -37 10 -15 212 64 212 83 0
18 -9 18 -55 -2 -20 -8 -39 -14 -40 -12 -10 10 -44 101 -41 107 3 4 23 14 46
21 39 13 49 33 19 36 -8 1 -56 -14 -106 -35z"/>
<path d="M3045 2683 c46 -24 84 -63 116 -118 32 -56 39 -54 10 3 -30 57 -111
132 -142 132 -8 -1 0 -8 16 -17z"/>
<path d="M1990 2686 c0 -9 30 -14 35 -6 4 6 -3 10 -14 10 -12 0 -21 -2 -21 -4z"/>
<path d="M1257 2658 c84 -108 101 -133 95 -139 -4 -4 -44 -19 -90 -34 -46 -15
-82 -28 -80 -30 4 -3 214 -65 222 -65 3 0 6 6 6 14 0 8 -25 21 -64 32 -36 10
-63 20 -61 22 2 2 31 14 64 26 l60 22 -40 51 c-21 29 -39 54 -39 56 0 3 27 -4
61 -14 72 -23 79 -23 79 -6 0 9 -39 26 -103 45 -115 36 -124 37 -110 20z"/>
<path d="M1915 2641 c-17 -10 -44 -33 -59 -52 -20 -23 -37 -33 -55 -33 -21 1
-22 0 -3 -3 32 -6 28 -33 -5 -34 l-28 -1 25 -8 25 -8 -25 -2 c-18 -2 -20 -4
-7 -7 18 -5 24 -23 7 -23 -15 0 -12 -30 3 -31 6 0 3 -4 -8 -9 -13 -6 -15 -9
-5 -9 8 -1 28 -14 43 -31 16 -16 36 -30 45 -30 11 0 4 8 -16 20 -40 25 -46 39
-38 94 9 58 58 130 109 161 23 14 38 25 32 25 -5 0 -24 -8 -40 -19z"/>
<path d="M2925 2609 c-16 -10 -25 -19 -19 -19 7 0 22 9 35 20 30 24 23 24 -16
-1z"/>
<path d="M2440 2585 c-19 -14 -30 -25 -25 -25 6 0 24 11 40 25 39 31 30 31
-15 0z"/>
<path d="M2540 2590 c0 -5 5 -10 11 -10 5 0 7 5 4 10 -3 6 -8 10 -11 10 -2 0
-4 -4 -4 -10z"/>
<path d="M2479 2543 l-24 -28 28 24 c25 23 32 31 24 31 -2 0 -14 -12 -28 -27z"/>
<path d="M2258 2553 c6 -2 18 -2 25 0 6 3 1 5 -13 5 -14 0 -19 -2 -12 -5z"/>
<path d="M2678 2553 c12 -2 30 -2 40 0 9 3 -1 5 -23 4 -22 0 -30 -2 -17 -4z"/>
<path d="M2748 2553 c6 -2 18 -2 25 0 6 3 1 5 -13 5 -14 0 -19 -2 -12 -5z"/>
<path d="M2395 2510 c10 -11 20 -20 23 -20 3 0 -3 9 -13 20 -10 11 -20 20 -23
20 -3 0 3 -9 13 -20z"/>
<path d="M2445 2499 c-4 -6 -5 -12 -2 -15 2 -3 7 2 10 11 7 17 1 20 -8 4z"/>
<path d="M3194 2451 c1 -32 4 -57 9 -54 4 2 7 13 7 24 0 11 7 19 18 20 13 0
14 2 2 6 -21 8 -31 26 -18 34 6 4 7 12 4 18 -16 25 -23 8 -22 -48z"/>
<path d="M1648 2463 c6 -2 18 -2 25 0 6 3 1 5 -13 5 -14 0 -19 -2 -12 -5z"/>
<path d="M3720 2449 c-130 -28 -130 -28 -130 -44 0 -8 3 -15 8 -15 23 2 213
48 219 54 19 19 -21 21 -97 5z"/>
<path d="M1942 2410 c0 -14 2 -19 5 -12 2 6 2 18 0 25 -3 6 -5 1 -5 -13z"/>
<path d="M1590 2414 c0 -17 46 -74 82 -101 40 -30 130 -76 179 -92 20 -6 47
-23 60 -37 35 -38 90 -59 224 -85 108 -22 146 -24 370 -24 231 1 259 3 370 27
146 32 163 38 207 77 19 16 58 39 87 50 28 12 70 30 93 42 44 22 138 105 138
121 0 6 -13 -3 -28 -20 -22 -24 -36 -30 -71 -30 -24 -1 -46 -4 -50 -7 -3 -4 8
-6 24 -5 56 4 60 0 22 -25 -50 -35 -118 -62 -141 -57 -11 2 -16 0 -12 -7 5 -7
-7 -11 -34 -11 -24 0 -39 -4 -35 -10 3 -5 -4 -12 -17 -14 -255 -53 -312 -59
-568 -59 -253 0 -357 12 -545 59 -167 42 -289 110 -337 189 -10 16 -18 25 -18
19z m505 -261 c62 -13 157 -17 430 -19 193 -1 359 -3 370 -4 45 -3 -32 -21
-159 -36 -137 -16 -432 -13 -506 6 -24 7 8 8 100 5 80 -2 125 0 110 5 -14 4
-77 9 -140 9 -63 1 -143 8 -178 16 -34 8 -66 14 -70 13 -10 -3 -105 24 -116
33 -4 4 11 3 35 -2 24 -6 80 -17 124 -26z"/>
<path d="M3150 2355 c-39 -29 -76 -41 -142 -49 l-48 -6 -1 38 c-2 33 -2 34 -6
7 -2 -16 -9 -43 -15 -58 -37 -94 -369 -125 -482 -44 -28 20 -29 20 -43 1 -13
-17 -27 -19 -156 -19 -83 1 -160 6 -185 13 -50 15 -110 64 -118 98 -5 19 -12
24 -38 23 -23 -1 -25 -3 -8 -6 20 -4 53 -43 36 -43 -13 0 41 -42 80 -62 85
-44 320 -68 375 -38 18 9 30 8 131 -13 60 -13 62 -15 30 -19 -19 -2 26 -5 100
-5 74 0 119 3 100 6 l-35 7 45 7 c75 11 118 26 149 52 16 14 39 25 51 25 11 0
18 5 15 10 -4 6 6 10 23 10 35 0 164 44 155 53 -3 4 18 8 48 9 50 1 51 2 11 5
-23 2 -40 8 -37 14 9 13 4 11 -35 -16z"/>
<path d="M2451 2313 c-1 -6 -4 -20 -7 -30 -5 -17 -5 -17 6 0 6 10 9 23 6 30
-3 9 -5 9 -5 0z"/>
</g>
</svg>
